<?xml version="1.0" standalone="no"?>
<!DOCTYPE svg PUBLIC "-//W3C//DTD SVG 20010904//EN"
 "http://www.w3.org/TR/2001/REC-SVG-20010904/DTD/svg10.dtd">
<svg version="1.0" xmlns="http://www.w3.org/2000/svg"
 width="16.000000pt" height="16.000000pt" viewBox="0 0 16.000000 16.000000"
 preserveAspectRatio="xMidYMid meet">

<g transform="translate(0.000000,16.000000) scale(0.100000,-0.100000)"
fill="#000000" stroke="none">
<path d="M37 153 c-13 -12 -7 -54 8 -58 50 -16 48 -14 30 -31 -11 -12 -13 -20
-6 -27 8 -8 3 -14 -17 -23 -24 -10 -21 -11 33 -10 l60 1 5 35 c3 19 -1 54 -9
78 -13 41 -15 42 -56 42 -23 0 -45 -3 -48 -7z m63 -33 c0 -5 -14 -10 -31 -10
-17 0 -28 4 -24 10 3 6 17 10 31 10 13 0 24 -4 24 -10z"/>
</g>
</svg>
